<svg width="687" height="665" viewBox="0 0 687 665" fill="none" xmlns="http://www.w3.org/2000/svg">
<path d="M162.002 487.406C121.189 474.156 79.5894 491.268 69.0269 525.606C58.4519 559.956 82.9894 598.556 123.802 611.806C164.614 625.056 206.227 607.931 216.789 573.581C227.314 539.243 202.802 500.656 162.002 487.406Z" fill="white"/>
<path d="M11.4769 599.331C-2.42312 610.243 -3.89812 632.218 8.15188 648.418C20.1894 664.643 41.2019 668.931 55.0894 658.031C68.9644 647.118 70.4644 625.131 58.4394 608.931C46.4019 592.706 25.3644 588.418 11.4769 599.331Z" fill="white"/>
<path d="M573.66 90.3787C544.065 74.9456 507.236 55.7392 463.255 27.4466C434.949 9.23392 404.038 0 371.373 0C243.678 0 113.964 145.106 113.964 249.414C113.964 324.347 142.414 384.62 198.529 428.552C247.67 467.022 317.357 491.358 400.055 498.932C415.859 500.377 431.252 501.111 445.813 501.111C522.101 501.111 581.278 481.158 621.691 441.809C665.005 399.641 686.964 334.914 686.964 249.414C686.964 149.47 651.461 130.953 573.66 90.3787ZM400.467 356.623C341.348 356.623 293.254 308.528 293.254 249.414C293.254 190.296 341.348 142.201 400.467 142.201C459.585 142.201 507.679 190.296 507.679 249.414C507.679 308.528 459.585 356.623 400.467 356.623Z" fill="white"/>
</svg>
