<svg width="571" height="697" viewBox="0 0 571 697" fill="none" xmlns="http://www.w3.org/2000/svg">
<path d="M259.722 0C227.231 0 190.659 9.03125 160.378 27.1719L160.409 27.0203C160.066 27.2641 159.712 27.5313 159.367 27.7766C149.794 33.6047 140.87 40.3469 132.925 48.0188C95.8781 78.2891 58.0734 117.878 38.5969 162C51.675 155.508 64.1672 147.25 76.7375 139.225C65.3078 158.764 57.9188 179.731 58.4125 201.956C67.675 192.972 80.6625 178.659 95.375 165.433C98.125 185.391 104.347 207.523 114.891 232.12L117.659 238.586L95.5734 276.902L134.722 316.052L161.906 288.864L200.927 347.395L212.661 263.761L357.258 343.519L450.77 250.006C461.681 205.694 454.689 162.653 436.933 124.6C403.178 52.2609 327.775 0 259.722 0ZM538.683 35.1844L433.448 65.2469C444.719 79.8828 454.527 95.7938 462.417 112.708C470.194 129.373 476.019 147.08 479.522 165.462L570.947 97.9938L480.972 102.069L538.683 35.1844ZM320.847 83.6328L348.597 88.2422C348.597 88.2422 346.644 100.214 342.15 113.297C339.903 119.838 337.052 126.775 332.936 133.212C328.822 139.65 323.305 146.234 314.17 149.28C305.033 152.323 296.67 150.364 289.514 147.683C282.362 145.002 275.914 141.164 270.192 137.277C258.75 129.508 250.005 121.102 250.005 121.102L269.442 100.77C269.442 100.77 276.856 107.809 285.992 114.013C290.561 117.113 295.511 119.894 299.391 121.347C303.269 122.8 305.575 122.494 305.277 122.592C304.98 122.692 307.008 121.555 309.238 118.066C311.467 114.575 313.758 109.378 315.55 104.159C319.138 93.7141 320.847 83.6328 320.847 83.6328ZM459.722 280.823L362.188 378.355L234.838 308.114L218.517 424.481L157.536 333.013L134.72 355.825L81.9438 303.048L0 344.023C12.4344 439.586 31.25 527.908 68.7 591.286C107.444 656.847 163.823 696.875 259.722 696.875C355.62 696.875 412 656.844 450.741 591.284C488.594 527.225 507.423 437.702 519.853 340.956L459.722 280.822V280.823Z" fill="white"/>
</svg>
