<svg width="550" height="530" viewBox="0 0 550 530" fill="none" xmlns="http://www.w3.org/2000/svg">
<path d="M275 252.075C308.427 252.075 340.485 238.796 364.122 215.159C387.759 191.523 401.038 159.465 401.038 126.038C401.038 92.6103 387.759 60.5521 364.122 36.9155C340.485 13.2789 308.427 0 275 0C241.573 0 209.515 13.2789 185.878 36.9155C162.241 60.5521 148.962 92.6103 148.962 126.038C148.962 159.465 162.241 191.523 185.878 215.159C209.515 238.796 241.573 252.075 275 252.075ZM275 307.45C107.425 307.45 0 399.925 0 444.95V529.025H550V444.95C550 390.5 448.3 307.45 275 307.45Z" fill="white"/>
</svg>
