<svg width="700" height="700" viewBox="0 0 700 700" fill="none" xmlns="http://www.w3.org/2000/svg">
<path d="M68.5547 420.578C72.3313 406.905 76.8234 394.987 82.0312 384.83C87.2391 374.672 92.3828 364.644 97.4609 354.747C102.539 344.85 106.966 333.716 110.742 321.344C114.519 308.972 116.667 296.012 117.188 282.469C117.969 260.07 110.808 245.484 95.7031 238.713C79.1516 228.692 60.9906 222.634 42.8031 216.567C28.2844 211.723 13.7484 206.875 0 200C9.40781 191.677 18.6406 182.844 27.9094 173.978C43.3156 159.242 58.8203 144.411 75.3906 131.662C59.2453 120.984 51.1719 105.747 51.1719 85.9516C51.1719 71.6266 56.7703 59.0594 67.9688 48.25C79.1672 37.4406 91.2766 32.0359 104.297 32.0359C115.495 32.0359 125.781 36.5297 135.156 45.5156C144.531 54.5016 151.953 64.4641 157.422 75.4031C155.598 63.1609 155.469 51.7672 157.031 41.2172C158.594 30.6688 163.347 21.1625 171.289 12.6969C179.231 4.23281 190.364 0 204.688 0C219.27 0 231.77 5.275 242.188 15.8234C252.605 26.3719 257.812 39.1984 257.812 54.3062C257.812 66.5469 254.036 77.7469 246.484 87.9047C248.567 88.1656 250.52 88.5563 252.344 89.0781C254.167 89.5984 255.73 90.0547 257.031 90.4453C258.333 90.8359 259.766 91.5516 261.328 92.5938C262.891 93.6359 264.128 94.3516 265.039 94.7422C265.95 95.1328 267.122 96.175 268.555 97.8672C269.987 99.5609 270.964 100.603 271.484 100.994C272.005 101.384 273.113 102.752 274.805 105.095C276.497 107.441 277.539 108.938 277.93 109.589C278.32 110.241 279.492 112.063 281.445 115.058C283.398 118.053 284.636 119.942 285.156 120.723C292.969 132.184 300.325 149.373 307.227 172.294C314.128 195.216 319.988 217.419 324.805 238.908C329.622 260.395 332.942 273.223 334.766 277.391C349.609 290.153 365.691 300.897 383.008 309.622C400.325 318.348 416.277 322.841 430.859 323.102C447.266 323.361 464.909 318.608 483.789 308.841C502.669 299.073 520.378 286.767 536.914 271.92C553.45 257.075 569.466 240.534 584.961 222.303C600.456 204.07 613.737 186.75 624.805 170.341C635.872 153.933 644.661 139.086 651.172 125.803C655.078 136.742 658.203 146.573 660.547 155.3C662.891 164.025 664.714 175.486 666.016 189.68C667.317 203.875 666.863 216.703 664.648 228.164C662.434 239.623 657.422 251.8 649.609 264.692C641.797 277.586 630.989 288.85 617.188 298.487C617.708 299.008 621.223 299.464 627.734 299.855C634.245 300.245 641.081 301.027 648.242 302.198C655.403 303.372 663.02 307.344 671.094 314.116C679.167 320.887 685.156 330.133 689.062 341.855C675.261 341.855 663.02 346.086 652.344 354.552C641.667 363.017 634.895 371.677 632.031 380.533C641.145 378.448 653.516 381.77 669.141 390.495C684.766 399.22 695.052 410.877 700 425.462C688.281 426.503 679.036 430.541 672.266 437.573C665.495 444.606 658.723 457.108 651.953 475.08C643.098 499.042 629.102 518.706 609.961 534.073C590.82 549.441 569.661 559.598 546.484 564.548C523.308 569.497 498.698 571.189 472.656 569.627C446.614 568.064 422.07 563.375 399.023 555.562C375.977 547.748 355.208 537.655 336.719 525.283C318.23 512.911 304.688 499.433 296.094 484.847C314.323 527.042 340.755 559.925 375.391 583.497C410.027 607.067 446.484 618.984 484.766 619.244C512.891 619.505 541.145 610.65 569.531 592.678C561.458 611.17 548.633 627.644 531.055 642.1C513.477 656.555 494.336 667.691 473.633 675.505C452.93 683.317 433.203 689.178 414.453 693.084C395.703 696.992 378.645 699.206 363.281 699.727C266.667 702.592 191.797 682.927 138.672 640.733C85.5469 598.538 60.0266 539.805 62.1094 464.531C62.6297 448.903 64.7781 434.253 68.5547 420.578ZM162.5 200C183.211 200 200 183.211 200 162.5C200 141.789 183.211 125 162.5 125C141.789 125 125 141.789 125 162.5C125 183.211 141.789 200 162.5 200Z" fill="white"/>
</svg>
