<svg xmlns="http://www.w3.org/2000/svg" viewBox="0 0 24 24" fill="currentColor">
  <path d="M20.216 6.415l-.132-.666c-.119-.598-.388-1.163-1.001-1.379-.197-.069-.42-.098-.57-.241-.152-.143-.196-.366-.231-.572-.065-.378-.125-.756-.192-1.133-.057-.325-.102-.69-.25-.987-.195-.4-.597-.634-.996-.788a5.723 5.723 0 0 0-.626-.194c-1-.263-2.05-.36-3.077-.416a25.834 25.834 0 0 0-3.7.062c-.915.083-1.88.184-2.75.5-.318.116-.648.256-.888.501-.297.302-.393.77-.177 1.146.154.267.415.456.692.58.36.162.737.284 1.123.366 1.075.238 2.189.331 3.287.37 1.218.05 2.437.01 3.65-.118.299-.033.598-.073.896-.119.352-.054.578-.513.474-.834-.124-.383-.457-.531-.834-.473-.466.074-.96.108-1.382.146-1.177.08-2.358.082-3.536.006a22.228 22.228 0 0 1-1.157-.107c-.086-.01-.18-.025-.258-.036-.243-.036-.484-.08-.724-.13-.111-.027-.111-.185 0-.212h.005c.277-.06.557-.108.838-.147h.002c.131-.009 1.499-.05 1.63-.06.402-.03.826-.06 1.23-.084 1.096-.069 2.19-.052 3.286.018.326.02.898.086 1.22.13.223.032.462.088.62.26.207.228.186.538.131.809l-.041.156c-.08.366.683.49.803.163z"/>
  <path d="M15.748 14.176L13.3 13.14V8.994c0-.443-.361-.804-.804-.804-.443 0-.804.361-.804.804v4.48l-2.538.886a.803.803 0 0 0-.517.757c0 .44.358.799.797.804l3.066-.002 3.066.002a.804.804 0 0 0 .28-1.545zM5 15.987l-1.5-7.5H2L.5 15.987C.5 18.745 2.239 21 4.5 21s4-2.255 4-5.013L7 8.487H5.5L4 15.987H5zM19 8.487h-1.5L16 15.987h1c0 2.758 1.739 5.013 4 5.013s4-2.255 4-5.013L23.5 8.487H22l-1.5 7.5H21L19 8.487z"/>
</svg>
