<svg xmlns="http://www.w3.org/2000/svg" viewBox="0 0 24 24">
  <circle cx="12" cy="12" r="12" fill="#FF4500"/>
  <path fill="white" d="M20 12a2 2 0 0 0-2-2 2 2 0 0 0-1.4.59C15.34 9.86 14 9.4 12.52 9.34l.73-3.44 2.39.5a1.4 1.4 0 1 0 .14-.66l-2.66-.56a.27.27 0 0 0-.32.2l-.81 3.84c-1.5.05-2.86.51-3.88 1.24A2 2 0 0 0 4 12a2 2 0 0 0 .78 1.58 3.46 3.46 0 0 0 0 .44C4.78 16.5 8.1 18 12 18s7.22-1.5 7.22-3.98a3.46 3.46 0 0 0 0-.44A2 2 0 0 0 20 12zm-11.5 1a1 1 0 1 1 2 0 1 1 0 0 1-2 0zm5.59 2.71c-.53.53-1.54.57-1.84.57s-1.32-.04-1.84-.57a.27.27 0 0 1 .38-.38c.34.34 1.06.46 1.46.46s1.12-.12 1.46-.46a.27.27 0 0 1 .38.38zm-.34-1.71a1 1 0 1 1 2 0 1 1 0 0 1-2 0z"/>
</svg>
