<svg width="4000" height="4000" viewBox="0 0 4000 4000" fill="none" xmlns="http://www.w3.org/2000/svg">
<path d="M1374 3H1564L1558 8L1644 10L1639 15L2545 91L2540 96L2561 98L2560 104L2574 105L2661 192V200L3136 694L3366 882L3453 944V951L3567 1039H3576L3575 1045L3663 1107L3697 1140L3752 1174L3786 1207L3806 1215L3839 1247L3845 1291L3839 1306L3812 1330L3560 1358L3557 1364H3528L3522 1372L3521 3049L3515 3050L3514 3069L3488 3097L3395 3120L3399 3124H3377L3468 3346L3480 3360L3495 3410L3500 3408L3502 3425L3507 3423L3508 3441L3514 3440L3527 3470L3528 3488L3534 3487L3535 3502L3548 3519V3536L3561 3549L3576 3599L3581 3597L3583 3615L3595 3629L3596 3644H3602L3603 3663L3615 3676V3732L3600 3746L3570 3760H3511L3512 3755L3489 3753L3480 3740H3432L3438 3735L3372 3726L3376 3722L3295 3706L3276 3694L3208 3692V3679L3199 3680L3168 3689L3204 3778L3209 3776L3216 3830L3194 3854L3164 3868H3099L3082 3855H3043L3046 3850L2925 3828L2930 3824L2864 3814L2836 3802L2805 3801L2808 3796L2756 3795L2754 3801L2649 3823L2654 3828L2553 3849V3855L2527 3856L2530 3861L2506 3868L2451 3876L2452 3882L2431 3883L2430 3889L2379 3896L2377 3902L2351 3904L2355 3909L2330 3910V3916L2140 3957L2141 3963L2089 3972L2092 3977L1997 3993L2003 3997H1911L1915 3992L1827 3977L1828 3972L1800 3970L1775 3958L1640 3929L1644 3924L1616 3922L1618 3917L1565 3909L1569 3904L1538 3902L1543 3897L1510 3895L1517 3890L1484 3889L1488 3884L1458 3882L1462 3876L1354 3855V3849L1327 3848L1326 3842L1297 3841L1301 3836L1268 3834L1272 3830L1220 3821L1219 3815L1196 3814L1198 3809L1167 3807L1171 3802L1141 3801L1144 3795L1056 3780L1057 3775L1009 3767L1010 3761L902 3740L905 3735L876 3733L880 3728L849 3726L853 3721L800 3713L803 3708L773 3706L777 3701L752 3699L731 3687L630 3665L635 3661L576 3652L581 3647L549 3645L554 3641L446 3618L447 3612L418 3611L420 3606L392 3599L333 3591L332 3585L306 3584L310 3580L272 3570V3550L321 3541L317 3536L453 3522L460 3520L455 3516L494 3515L491 3509H536L543 3522V3137L440 3110L416 3095L393 3058L386 1371L96 1337L97 1331L83 1330L55 1302V1251L100 1208L223 1126L284 1079L283 1073L366 1018L419 971L447 957L792 693L1110 320L1321 57L1374 3ZM3234 3166L3035 3207L3039 3211L2981 3219L2986 3251L2993 3252L3006 3298L3020 3313L3028 3346L3099 3332L3279 3278L3234 3166ZM766 3191L768 3463L772 3455L842 3448L900 3435L902 3429L941 3427L939 3422L1197 3374L1199 3368L1231 3364L1226 3360H1271L1313 3352L1308 3348L1374 3342L1283 3313L1199 3299L1197 3293L1171 3292L1168 3286L998 3246L934 3238L932 3232L906 3231L766 3191ZM2801 3269L2701 3293L2700 3299L2561 3327L2560 3334H2533L2519 3346L2627 3360V3367L2748 3388L2803 3408L2801 3269ZM3310 3381L3135 3434L3089 3441L3074 3448V3456L3210 3482L3211 3489L3311 3510L3313 3516L3343 3517L3339 3529L3379 3523L3324 3384L3310 3381Z" fill="#2B1C0B"/>
<path d="M1497 104L2354 162L2524 180L2675 342L2765 426L2874 550L3094 768L3453 1058L3689 1228L3715 1251V1259L3507 1266L3389 1235L3402 1260L3462 1320L3454 1327L3338 1308L3181 1253L3255 1336L3257 1348L3087 1308L2961 1254L3022 1351L3023 1360L3015 1361L2933 1333L2775 1258L2831 1367L2769 1361L2709 1341L2565 1278L2617 1394L2514 1367L2416 1328L2332 1284L2385 1414L2329 1395L2268 1358L2221 1322L2170 1266L2130 1377L2115 1388L2015 1052L1993 1005L1939 829L1920 747L1874 631L1807 517L1581 233L1496 116L1497 104Z" fill="#EBA32B"/>
<path d="M1488 289H1505L1517 303L1682 510L1752 586L1797 655L1860 829L1958 1188L2013 1361L2027 1385L2034 1426L2026 1428L1996 1405L1876 1286L1766 1365L1679 1401L1617 1416L1639 1289L1475 1382L1365 1408L1389 1294L1284 1349L1152 1388L1127 1386L1162 1281L1003 1349L903 1373L958 1252L800 1325L689 1360L774 1213L670 1264L485 1326H476L477 1315L518 1267L549 1215L373 1264L193 1255L199 1244L563 1003L749 866L1171 616L1488 289Z" fill="#EAA02A"/>
<path d="M1380 3336L1706 3427L1848 3456L1852 3847L1876 3880L1916 3901L1981 3904L2004 3898L2038 3882L2067 3854L2073 3444L2508 3337L2519 3346L2560 3347L2559 3352L2593 3354L2587 3358L2656 3367L2654 3372L2684 3374L2682 3380L2782 3394L2777 3399L2804 3407L2809 3524L2816 3547L2865 3579H2925L2962 3569L3056 3820L3073 3849L3014 3848L3019 3843L2982 3841L2984 3836L2956 3834L2958 3829L2805 3801L2808 3796L2756 3795L2754 3801L2649 3823L2654 3828L2553 3849V3855L2527 3856L2530 3861L2506 3868L2451 3876L2452 3882L2431 3883L2430 3889L2379 3896L2377 3902L2351 3904L2355 3909L2330 3910V3916L2140 3957L2141 3963L2089 3972L2092 3977L1997 3993L2003 3997H1911L1915 3992L1827 3977L1828 3972L1800 3970L1775 3958L1640 3929L1644 3924L1616 3922L1618 3917L1565 3909L1569 3904L1538 3902L1543 3897L1510 3895L1517 3890L1484 3889L1488 3884L1458 3882L1462 3876L1354 3855V3849L1327 3848L1326 3842L1297 3841L1301 3836L1268 3834L1272 3830L1220 3821L1219 3815L1196 3814L1198 3809L1167 3807L1171 3802L1141 3801L1144 3795L1056 3780L1057 3775L1009 3767L1010 3761L902 3740L905 3735L876 3733L880 3728L849 3726L853 3721L800 3713L803 3708L773 3706L777 3701L752 3699L731 3687L630 3665L635 3661L576 3652L581 3647L549 3645L554 3641L446 3618L447 3612L418 3611L420 3606L392 3599L333 3591L332 3585L306 3584L310 3580L272 3570V3550L321 3541L317 3536L453 3522L460 3520L455 3516L494 3515L491 3509H536L556 3558L577 3578L623 3592H685L731 3578L755 3557L763 3458L1138 3386L1170 3378L1165 3374L1226 3366V3360L1375 3344L1380 3336Z" fill="#E8D0B0"/>
<path d="M2438 2736L2477 2744L2491 2782L2492 3176L2480 3223L2451 3258L2316 3286L2104 3344L2038 3341L2018 3313L2015 3240L2013 2871L2027 2832L2064 2808L2438 2736Z" fill="#557D3B"/>
<path d="M2075 1550L2451 1509L2480 1530L2494 1580L2484 1973L2469 2014L2444 2032L2410 2037L2099 2079L2040 2072L2021 2046L2016 2014L2017 1613L2028 1588L2075 1550Z" fill="#D84814"/>
<path d="M2417 2126L2458 2130L2481 2171L2482 2587L2476 2609L2461 2625L2424 2641L2096 2700L2060 2703L2038 2696L2022 2676L2019 2648L2018 2263L2027 2218L2048 2195L2080 2182L2417 2126Z" fill="#EEB425"/>
<path d="M1512 2747L1862 2806L1888 2821L1903 2840L1919 2884L1921 3319L1913 3339L1889 3358L1862 3360L1706 3316L1531 3282L1486 3244L1478 3226L1477 2793L1489 2758L1512 2747Z" fill="#1D4D6B"/>
<path d="M1510 1516L1585 1517L1862 1546L1908 1570L1920 1595V2037L1895 2077L1842 2083L1645 2057L1538 2038L1504 2025L1487 2005L1480 1990L1479 1937V1567L1489 1533L1510 1516Z" fill="#E3990D"/>
<path d="M1511 2134L1868 2174L1913 2217L1919 2672L1889 2707L1807 2705L1524 2654L1490 2627L1480 2582L1485 2180L1489 2157L1511 2134Z" fill="#1D4C69"/>
<path d="M995 2656L1345 2713L1377 2746L1392 2796V3192L1373 3231L1315 3232L1070 3178L1003 3161L977 3141L962 3100V2692L970 2670L995 2656Z" fill="#CC3816"/>
<path d="M996 1461L1334 1498L1379 1526L1389 1555V1959L1382 1985L1365 2002L1342 2013H1308L1165 1987L1009 1971L975 1945L960 1906L961 1522L964 1492L996 1461Z" fill="#C83416"/>
<path d="M1001 2062L1325 2107L1347 2118L1374 2148L1390 2207L1389 2585L1368 2612L1278 2611L1124 2578L1022 2565L997 2558L975 2541L962 2514L959 2474L960 2103L968 2081L1001 2062Z" fill="#476A34"/>
<path d="M527 1410L833 1441L866 1464L878 1506L877 1878L871 1919L847 1947L759 1944L527 1908L489 1883L477 1831V1442L491 1417L527 1410Z" fill="#1E4D6C"/>
<path d="M3080 1440L3407 1401L3438 1433L3440 1738L3433 1865L3393 1892L3229 1912L3101 1938L3058 1937L3035 1911L3036 1473L3054 1453L3080 1440Z" fill="#326688"/>
<path d="M507 2564L833 2621L857 2639L879 2690L878 3089L861 3108L819 3114L534 3045L501 3034L478 3008L473 2617L477 2589L507 2564Z" fill="#E49A0E"/>
<path d="M508 2003L788 2030L846 2042L868 2064L878 2082L883 2123L881 2487L874 2507L853 2524L806 2525L555 2483L509 2470L490 2453L478 2433L476 2405L472 2058L484 2020L508 2003Z" fill="#DA4D14"/>
<path d="M3378 1981L3414 1983L3437 2018V2414L3392 2458L3099 2505L3034 2380L3038 2061L3060 2037L3095 2024L3378 1981Z" fill="#EEB526"/>
<path d="M2918 2048L2943 2055L2955 2069L2959 2090V2383L2923 2415V2453L2963 2539L2762 2585L2695 2592L2683 2582L2653 2500L2615 2449L2567 2441L2573 2128L2601 2094L2918 2048Z" fill="#527A39"/>
<path d="M1488 289H1505L1517 303L1682 510L1752 586L1797 655L1860 829L1956 1174L1881 937H1875L1874 923L1867 924L1855 889L1791 782L1710 678L1691 679L1555 813L1582 662L1585 601L1423 744L1329 813L1320 807L1344 780L1430 631L1403 636L1225 746L1077 812L1230 684L1324 591L1104 693L1027 724L1010 722L984 732L1192 598L1488 289Z" fill="#BA670F"/>
<path d="M2601 1496L2923 1466L2957 1499V1940L2905 1954L2886 1946L2883 1653L2685 1671L2655 1684L2642 1727L2647 1996L2577 2000L2568 1992L2563 1943L2576 1519L2601 1496Z" fill="#547D3B"/>
<path d="M2510 864L2797 1186L2854 1238L2891 1258L2954 1281L2764 998L2691 867L3061 1253L3196 1290L3237 1327L3188 1266L3157 1243L3045 1127L2929 970L2867 871L2881 877L2903 908L3205 1207L3297 1248L3396 1275L3437 1309L3418 1311L3417 1305L3377 1299L3345 1302L3459 1324L3439 1297L3462 1326L3338 1308L3181 1253L3259 1347L3087 1308L2961 1254L3022 1361L2933 1333L2775 1258L2793 1304L2775 1272L2768 1282L2724 1202L2594 1018L2583 985L2507 876L2510 864Z" fill="#C16D11"/>
<path d="M3398 2542L3426 2552L3443 2592L3444 2981L3417 3025L3344 3045L3140 2590L3398 2542Z" fill="#D74415"/>
<path d="M1299 1033L1304 1042L1243 1161L1217 1194L1179 1284L1174 1289L1172 1279L1158 1298L1131 1386L1178 1379L1246 1356L1334 1317L1327 1312L1185 1369L1142 1373L1150 1342L1188 1327L1275 1264L1462 1107L1504 1060L1439 1206L1399 1339L1387 1350L1389 1378L1381 1391H1401L1479 1363L1630 1276L1649 1283L1652 1294L1693 1100L1529 1256L1398 1364L1699 1087L1704 1097L1660 1283L1639 1354L1634 1344L1631 1371L1730 1278L1817 1210L1938 1346L1876 1286L1766 1365L1679 1401L1617 1416L1639 1289L1475 1382L1365 1408L1388 1294L1284 1349L1178 1382L1129 1388L1141 1330L1162 1281L1003 1349L902 1372L920 1331L925 1342L943 1317L948 1321L1043 1262L1247 1096L1299 1033ZM1337 1306L1335 1310L1339 1306H1337Z" fill="#C16D10"/>
<path d="M2585 2703L2609 2739L2716 3015L2789 3172V3178L2761 3187L2613 3226H2601L2575 3206L2566 3171L2568 2752L2585 2703Z" fill="#D84615"/>
<path d="M947 981L946 996L891 1067L793 1216L780 1248L753 1279L745 1271L718 1321L746 1293L871 1220L1121 1005L958 1288L949 1301L942 1292L928 1318L958 1252L800 1325L689 1360L773 1219L769 1213L616 1285L476 1326L477 1315L487 1303L478 1323L529 1309L500 1307V1299L538 1255L555 1257L657 1213L947 981Z" fill="#BD6A10"/>
<path d="M1384 148H1393L1428 192L1407 226L1121 549L973 637L1283 260L1384 148Z" fill="#B7660F"/>
<path d="M2320 879L2461 1057L2638 1255L2705 1290L2779 1316L2790 1313L2817 1348L2795 1306L2831 1367L2769 1361L2709 1341L2565 1278L2618 1385L2617 1394H2607L2538 1375L2450 1342L2356 1294L2377 1297L2417 1324L2478 1350L2613 1390L2559 1282L2555 1304L2538 1283L2526 1249L2516 1242L2499 1202L2492 1201L2488 1182L2426 1081L2353 938L2319 890L2320 879Z" fill="#C36F11"/>
<path d="M3063 2792L3083 2813L3118 2903L2945 2951L2848 2966L2807 2846L2877 2838L3063 2792Z" fill="#D84814"/>
<path d="M1699 1087L1704 1097L1660 1283L1639 1354L1634 1344L1631 1371L1730 1278L1817 1210L1828 1215L1852 1255L1884 1284L1937 1348L1876 1286L1766 1365L1679 1401L1617 1416L1642 1296L1636 1284L1483 1373L1368 1404L1398 1298V1322L1387 1348L1389 1378L1381 1391H1401L1479 1363L1630 1276L1649 1283L1652 1294L1693 1100L1529 1256L1398 1364L1699 1087Z" fill="#C67211"/>
<path d="M3072 911L3210 1014L3371 1158L3487 1240L3514 1249L3518 1260L3710 1257L3663 1213L3710 1246L3715 1259L3507 1266L3389 1235L3435 1296L3405 1265L3386 1262L3368 1237L3236 1113L3072 911Z" fill="#BF6A10"/>
<path d="M739 976L737 996L557 1230L547 1225L541 1250L540 1242L528 1252L549 1215L433 1251L373 1264H325L360 1262L361 1251L461 1186L739 976Z" fill="#BE690F"/>
<path d="M2994 2627L3008 2633L3034 2700L2830 2748L2769 2751L2733 2678L2734 2670L2836 2659L2994 2627Z" fill="#C86114"/>
<path d="M3075 3019L3158 2993L3177 3030L3189 3076L2941 3133L2924 3127L2900 3055L3075 3019Z" fill="#DB4715"/>
<path d="M3076 3462L3182 3475L3184 3481L3210 3482L3209 3488L3236 3489L3232 3493L3285 3508L3341 3516L3339 3528H3357L3356 3533L3126 3591L3077 3479L3076 3462ZM3415 3618L3434 3635L3477 3727L3473 3741L3432 3740L3438 3735L3372 3726L3376 3722L3295 3706L3276 3694L3208 3692V3679L3195 3682L3242 3661L3415 3618Z" fill="#E8D0B0"/>
<path d="M2000 284L2279 615L2359 739L2345 734L2137 495L2028 341L2001 298L2000 284Z" fill="#BF6A0E"/>
<path d="M853 631L822 677L766 731L613 840L174 1178L83 1239L70 1255L65 1280L72 1302L65 1309L55 1302V1251L75 1228L176 1160L175 1154L196 1146L284 1079L283 1073L447 957L644 802L671 788L697 761L725 747L724 741L792 693L853 631Z" fill="#0D0504"/>
<path d="M2369 336L2457 430L2524 519L2692 701L2725 756L2586 631L2507 545L2366 348L2369 336Z" fill="#BC650D"/>
<path d="M1849 325L1859 328L2037 539L2143 694L2166 753H2158L2147 727L2093 654L1925 450L1849 325Z" fill="#C16C10"/>
<path d="M2184 1231L2262 1306L2316 1337L2347 1346L2344 1316L2387 1412L2374 1414L2329 1395L2268 1358L2221 1322L2170 1266L2130 1377L2122 1388L2111 1385L2098 1329L2115 1383L2121 1384L2162 1267L2173 1263L2184 1231Z" fill="#C67312"/>
<path d="M2516 168L2538 173L2600 248L2774 422L2836 498L2876 532L2931 599L3032 701L3252 891L3297 919L3430 1027L3440 1028L3478 1060L3487 1079L3094 768L2899 577L2765 426L2594 253L2527 174H2520L2527 172L2516 168Z" fill="#100A09"/>
<path d="M2203 344L2279 425L2399 577L2438 613L2515 723L2392 606L2319 524L2225 388L2203 344Z" fill="#BE680E"/>
<path d="M2545 361L2601 413L2880 725L2769 638L2680 548L2583 427L2545 361Z" fill="#BD670E"/>
<path d="M3153 707L3366 882L3453 944V951L3567 1039H3576L3617 1079L3636 1086V1093L3663 1107L3697 1140L3806 1215L3818 1229L3812 1236L3824 1249L3827 1262L3807 1233L3604 1083L3142 714L3153 707Z" fill="#0A0302"/>
<path d="M1500 281L1542 320L1732 559L1682 510L1505 290H1488L1170 618L989 728L967 729L1139 627L1184 591L1295 485L1483 283L1500 281Z" fill="#100E0C"/>
<path d="M1233 165L1258 157L1175 261L859 629L853 620L989 463V455L1057 383V375L1110 320L1233 165Z" fill="#0D0604"/>
<path d="M2807 3255L2800 3271L2783 3279L2724 3288L2728 3293L2701 3294V3300L2672 3301L2645 3313L2615 3315L2617 3320L2587 3321L2589 3327L2561 3328L2560 3334L2485 3343L2068 3442L2075 3431L2167 3416L2281 3382L2807 3255Z" fill="#0E0705"/>
<path d="M3062 1451L3131 1443L3115 1448H3133L3066 1457L3047 1478L3044 1914L3061 1926H3105L3217 1900L3261 1902L3101 1938L3066 1939L3044 1923L3038 1907L3036 1489L3045 1466L3062 1451Z" fill="#33749F"/>
<path d="M1149 1465L1244 1472L1359 1494L1389 1522L1400 1547V1964L1385 1999L1360 2019L1300 2023L1267 2013L1335 2018L1358 2012L1386 1986L1392 1960L1391 1553L1379 1525L1337 1493L1140 1471L1149 1465Z" fill="#0A1508"/>
<path d="M2942 1480L2956 1495L2958 1524L2957 1940L2905 1954L2886 1946L2883 1653L2685 1671L2655 1684L2642 1727L2647 1996L2577 2000L2568 1992L2563 1943V1806L2571 1540L2576 1519L2583 1509L2574 1540L2569 1739L2572 1990L2642 1992L2635 1731L2642 1696L2661 1676L2685 1666L2885 1651L2890 1945L2904 1949L2953 1940L2956 1544L2954 1500L2942 1480Z" fill="#3F4C23"/>
<path d="M1325 202L1329 207L1292 254L1069 525L964 634L1325 202Z" fill="#0D0C0C"/>
<path d="M2508 3339L2514 3348L2489 3359L2082 3454L2079 3476L2075 3459L2074 3732L2073 3446L2146 3434L2508 3339Z" fill="#E8D0B0"/>
<path d="M504 2567H529L532 2575L495 2582L488 2600L489 3017L476 2988V2613L485 2582L504 2567Z" fill="#F8BA10"/>
<path d="M1492 122L1531 163L1734 438L1797 512L1853 600L1856 619L1846 613L1836 584L1776 495L1526 180L1492 122Z" fill="#0C0708"/>
<path d="M1165 1275L1131 1386L1178 1379L1301 1338L1397 1284L1369 1404L1483 1373L1636 1283L1643 1285V1296L1621 1384L1639 1289L1475 1382L1377 1408H1365L1363 1400L1389 1294L1284 1349L1152 1388L1127 1386L1162 1281L1003 1349L990 1350L984 1354H975L955 1362L943 1363L1062 1322L1165 1275Z" fill="#683D0E"/>
<path d="M1805 3460H1851L1852 3847L1876 3886L1861 3881L1843 3857L1842 3468L1805 3460ZM1838 3640L1842 3638L1840 3644L1838 3640Z" fill="#E8D0B0"/>
<path d="M996 2659L1084 2674L987 2671L974 2690L976 3122L995 3146L1044 3159L1036 3162L1021 3154L1002 3156L980 3142L968 3118L965 3081V2692L973 2670L996 2659Z" fill="#EF4319"/>
<path d="M997 1465L1030 1468L998 1467L975 1487L998 1470H1018L989 1480L976 1501L971 1926L963 1905L965 1525L974 1481L997 1465Z" fill="#ED3E18"/>
<path d="M1511 1507H1560L1609 1509L1503 1513L1511 1507ZM1494 1517L1503 1515L1493 1521L1494 1517ZM1488 1522L1476 1587L1478 1994L1507 2033L1497 2032L1472 2000L1466 1924L1467 1584L1471 1547L1488 1522Z" fill="#08070F"/>
<path d="M1510 1516L1585 1517L1862 1546L1890 1555L1908 1570L1920 1595V2037L1906 2068L1895 2077L1875 2083H1842L1686 2061L1877 2080L1902 2068L1917 2037V1595L1902 1567L1862 1548L1703 1537L1566 1518H1511L1488 1540L1482 1567V1992L1511 2026L1571 2041L1514 2030L1487 2005L1480 1990L1479 1937V1567L1489 1533L1510 1516Z" fill="#A8710F"/>
<path d="M1497 2757L1507 2763L1490 2777L1487 3080L1489 3223L1500 3252L1481 3224L1479 3162V2778L1497 2757Z" fill="#1A5B82"/>
<path d="M1491 292L1505 295L1613 426L1618 436L1611 429L1608 435L1614 442L1580 403L1572 387H1567L1545 355L1532 348L1499 300L1476 314L1353 451L1280 516L1491 292Z" fill="#DF7A0F"/>
<path d="M1630 1280L1626 1292L1483 1373L1368 1404L1398 1298V1322L1387 1348L1389 1378L1381 1391H1401L1479 1363L1630 1280Z" fill="#E48513"/>
<path d="M3580 3597L3596 3644H3602L3603 3663L3615 3676V3732L3570 3760H3511L3512 3755L3489 3753L3477 3739L3473 3706L3493 3735L3530 3745L3575 3741L3606 3719L3594 3659L3572 3618L3580 3597Z" fill="#0A0302"/>
<path d="M2441 183L2519 180L2535 192L2743 407L2804 481L2791 476L2689 361L2616 294L2526 191L2441 183Z" fill="#F8C430"/>
<path d="M3386 1969L3418 1977L3431 1986L3438 2002L3413 1983L3378 1982L3229 2009L3082 2022L3042 2049L3049 2033L3078 2017L3169 2008L3386 1969Z" fill="#100A08"/>
<path d="M3281 3268L3284 3290L3233 3302L3202 3318L3048 3357H3025L3018 3350L3022 3333L3034 3346L3036 3340L3064 3339V3333L3099 3332L3095 3327L3121 3326L3120 3320L3168 3312V3306L3263 3285V3279L3278 3278L3281 3268Z" fill="#0A0202"/>
<path d="M2315 1272L2321 1281L2349 1276L2465 1337L2560 1365V1372L2601 1378L2584 1353L2528 1326L2573 1340L2591 1360L2594 1352L2579 1324L2603 1363L2613 1390L2478 1351L2377 1297L2332 1284L2342 1316L2315 1272ZM2574 1355L2575 1354L2580 1355H2574Z" fill="#E68815"/>
<path d="M2508 3337L2519 3341V3346L2560 3347L2559 3353L2521 3348L2515 3344L2513 3339L2478 3352L2161 3426L2146 3434L2073 3447L2071 3854L2038 3887L1992 3906L1934 3907L1924 3903L2004 3898L2038 3882L2067 3854L2073 3444L2508 3337Z" fill="#E8D0B0"/>
<path d="M1337 1306L1339 1307L1335 1310L1337 1306ZM1278 1256L1274 1266L1218 1308L1171 1338L1150 1342L1143 1375L1218 1358L1327 1311L1335 1310V1317L1243 1358L1131 1386L1151 1311L1171 1274L1175 1291L1154 1340L1209 1310L1278 1256Z" fill="#E58615"/>
<path d="M2060 2188L2173 2171L2149 2179L2167 2180L2086 2189L2050 2202L2031 2237L2029 2659L2025 2231L2031 2212L2060 2188Z" fill="#FCDC28"/>
<path d="M1497 100L1654 107L2377 164L1497 105L1503 125L1529 155L1576 221L1580 233L1498 124L1492 114L1497 100Z" fill="#805817"/>
<path d="M2994 2627L3008 2633L3034 2700L2939 2719L2965 2704L3023 2693L2998 2640L2891 2659L2884 2652L2850 2667L2817 2668L2848 2655L2994 2627Z" fill="#E87118"/>
<path d="M1635 1288L1640 1295L1610 1416L1609 1391L1629 1301L1495 1382L1389 1415L1364 1414L1477 1381L1635 1288Z" fill="#0D0A0B"/>
<path d="M3089 2030L3079 2036L3100 2037L3062 2046L3046 2077L3049 2395L3037 2379L3038 2069L3061 2038L3089 2030Z" fill="#EFD428"/>
<path d="M507 2564L576 2572L710 2602L529 2568H504L485 2583L477 2613L481 3008L509 3033L763 3093L792 3104L534 3045L501 3034L478 3008L473 2617L477 2589L507 2564Z" fill="#8F5F0E"/>
<path d="M3428 2020L3432 2413L3415 2440L3393 2447L3426 2407L3428 2020Z" fill="#FDDE26"/>
<path d="M1390 1291L1362 1407L1357 1392L1379 1307L1287 1356L1169 1395H1131L1284 1348L1390 1291Z" fill="#0B090B"/>
<path d="M3038 2049L3030 2278L3033 2392L3023 2378L3022 2081L3038 2049Z" fill="#0B0507"/>
<path d="M1247 409H1254L1231 440L1120 563L977 645L996 625L1064 591L1114 555L1247 409Z" fill="#110F0E"/>
<path d="M2295 1527L2451 1509L2480 1530L2489 1552L2494 1580L2490 1811L2480 1993L2469 2014L2444 2032L2234 2056L2444 2029L2476 1999L2485 1547L2470 1524L2453 1514L2295 1527Z" fill="#7F320F"/>
<path d="M1252 408L1433 208L1439 190L1412 157L1405 159L1427 201L1340 296L1252 408Z" fill="#15100D"/>
<path d="M1917 1573L1928 1594V2033L1916 2061L1917 1573Z" fill="#05040D"/>
<path d="M3415 3618L3434 3635L3472 3734L3462 3732L3420 3629L3225 3676L3415 3618ZM763 3458L771 3462V3555L739 3590L691 3602H612L590 3593L685 3596L692 3587L736 3575L758 3549L763 3458Z" fill="#E8D0B0"/>
<path d="M686 899L692 904L555 1005L395 1108L442 1068L686 899Z" fill="#0E0809"/>
<path d="M996 1461L1228 1482L1341 1502L1057 1468L989 1467L975 1481L966 1525L963 1905L971 1934L960 1906L961 1522L964 1492L971 1480L996 1461Z" fill="#8E2C12"/>
<path d="M1153 1271L1159 1276L1137 1290L1059 1324L941 1366L902 1372L914 1346L920 1345L919 1359L995 1337L1070 1305H1086L1153 1271Z" fill="#E28213"/>
<path d="M2961 1254L3087 1308L3260 1351L3248 1356L3169 1342L3062 1302H3043L2987 1273L2982 1274L2988 1296L2961 1254Z" fill="#0C090A"/>
<path d="M3169 3674L3427 3607L3358 3634L3222 3667L3196 3677V3686L3162 3690L3169 3674Z" fill="#110B07"/>
<path d="M1026 1478L1157 1479L1347 1506L1366 1518L1377 1540L1380 1572L1368 1527L1343 1513L1148 1484L1026 1478Z" fill="#E93C19"/>
<path d="M1384 150L1396 154L1425 200L1289 348L1415 199L1390 158L1340 205L1384 150Z" fill="#E37E10"/>
<path d="M387 1417L393 1739L396 1417L400 1450L399 1879L395 1888L390 1746L388 1982L387 1417Z" fill="#0E0404"/>
<path d="M1156 1283L1160 1288L1148 1303L1120 1381L1141 1301L1010 1356L926 1382H902L965 1366L975 1354L1144 1295L1156 1283Z" fill="#0F0C0B"/>
<path d="M2600 2702L2623 2745L2660 2846L2665 2847L2720 3001L2682 2925L2613 2730L2600 2717V2702Z" fill="#0D1309"/>
<path d="M1198 355L1199 362L1064 525L964 634L1128 430L1198 355Z" fill="#09090C"/>
<path d="M2082 3520L2084 3848L2058 3882L2014 3908L1959 3918L1903 3905L2004 3901L2039 3885L2071 3854L2073 3841L2075 3848L2081 3844L2082 3520Z" fill="#E8D0B0"/>
<path d="M2743 407L2906 583L3094 768L2877 556L2871 563L2797 484L2802 475L2791 471L2743 407Z" fill="#BA8B24"/>
<path d="M1510 2033H1527L1768 2076L1664 2072L1530 2045L1510 2033Z" fill="#1F140D"/>
<path d="M2361 1303L2450 1342L2620 1401L2594 1402L2470 1361L2361 1303Z" fill="#120D0B"/>
<path d="M2165 906L2170 907L2287 1074L2210 981L2211 971L2171 918L2261 1121L2283 1188L2309 1234L2311 1256L2165 924V906Z" fill="#CB7916"/>
<path d="M1510 2131L1685 2153L1511 2135L1489 2158L1481 2582L1491 2629L1478 2586L1480 2192L1485 2155L1510 2131Z" fill="#27343C"/>
<path d="M1849 1298L1853 1303L1816 1331L1746 1375L1678 1400L1617 1412L1629 1377V1399H1656L1658 1393L1734 1372V1366L1761 1358L1849 1298Z" fill="#ED8B14"/>
<path d="M401 1413L404 1418L406 2138L402 2350L401 1413Z" fill="#120E06"/>
<path d="M1512 2747L1578 2754L1862 2806L1868 2811L1537 2751H1507L1488 2765L1480 2778V3162L1481 3224L1491 3248L1478 3226L1477 2793L1478 2777L1489 2758L1512 2747Z" fill="#263843"/>
<path d="M3073 1442L3202 1429L3080 1443L3060 1452L3039 1479L3038 1884L3039 1907L3056 1935L3035 1911L3032 1489L3042 1465L3073 1442Z" fill="#30434C"/>
<path d="M952 1254L956 1261L935 1295L930 1286L936 1275L806 1335L691 1368L881 1294L952 1254Z" fill="#0C0A0A"/>
<path d="M568 998L575 1001L371 1146L334 1165L422 1095L568 998Z" fill="#F7C02C"/>
<path d="M2736 2673L2764 2677L2749 2676L2747 2691L2768 2726V2739L2858 2733L2862 2726L2897 2721L2922 2724L2837 2740L2830 2748L2769 2751L2746 2710L2736 2673Z" fill="#E77119"/>
<path d="M2935 2630L3007 2618L3006 2623L2796 2664L2742 2666L2735 2660L2783 2658L2896 2630H2935Z" fill="#100D09"/>
<path d="M3081 2448L3102 2492L3301 2456L3339 2454L3328 2458L3351 2460L3229 2475L3100 2502L3081 2466V2448Z" fill="#FCD92B"/>
<path d="M3378 1981L3414 1983L3431 2000L3438 2031L3437 2414L3415 2442L3392 2458L3378 2457L3417 2438L3433 2412V2017L3427 2001L3407 1986L3283 2001L3378 1981Z" fill="#8E7317"/>
<path d="M1354 1507H1362L1381 1526L1393 1557V1960L1388 1981L1367 2003L1356 2011L1323 2015L1310 2013L1342 2012L1373 1995L1389 1959L1388 1555L1377 1525L1354 1507Z" fill="#58220E"/>
<path d="M461 1245L468 1252L377 1275L191 1265L378 1267L461 1245Z" fill="#0A080A"/>
<path d="M3196 3158L3193 3163L3168 3170L3123 3178L3127 3191L3094 3193L3095 3198L3035 3207L3040 3212L3008 3219L2979 3215L2980 3207L3002 3201L3048 3196L3196 3158Z" fill="#0B0302"/>
<path d="M1878 1289L1883 1298L1769 1375L1670 1415L1618 1422L1740 1381L1878 1289Z" fill="#09080B"/>
<path d="M3095 2024L3283 2003L3140 2026L3095 2027L3060 2040L3039 2069L3038 2379L3058 2414L3056 2419L3034 2380L3038 2061L3060 2037L3095 2024Z" fill="#9A7A19"/>
<path d="M2176 1281L2247 1349L2323 1397L2368 1411L2382 1423L2343 1413L2243 1356L2215 1325L2189 1310L2176 1281Z" fill="#0C0A0B"/>
<path d="M2485 2756L2493 2785L2496 2870L2495 3189L2489 3207L2469 3245L2446 3262L2280 3297L2451 3258L2487 3205L2492 2813L2485 2756Z" fill="#414C24"/>
<path d="M3328 3530L3335 3535L3128 3587L3114 3559L3116 3546L3137 3577L3277 3537L3328 3530Z" fill="#E8D0B0"/>
<path d="M2343 1316L2387 1407L2385 1414L2329 1395L2261 1349L2294 1358L2308 1373L2371 1400L2349 1351L2336 1347L2348 1345L2343 1316Z" fill="#E28516"/>
<path d="M2949 2069L2954 2380L2927 2400L2946 2381L2949 2069Z" fill="#629F4D"/>
<path d="M1182 465L1183 476L1110 557L1018 607L1046 581L1113 544L1182 465Z" fill="#DD7A10"/>
<path d="M3559 1128L3681 1211L3714 1238L3722 1260L3715 1267L3627 1272L3710 1265L3715 1248L3549 1130L3564 1135L3559 1128Z" fill="#110A09"/>
<path d="M285 1188L278 1197L238 1225L198 1246L194 1255L373 1263L488 1235L528 1217L549 1215V1221L491 1302L546 1218L378 1268L192 1259L197 1242L285 1188Z" fill="#6C4010"/>
<path d="M891 771L900 777L694 898L733 865L891 771Z" fill="#120B0A"/>
<path d="M3428 1432L3434 1462L3435 1710V1739L3428 1740V1432Z" fill="#3282BA"/>
<path d="M2954 1246L3017 1277L3067 1291L3089 1304L3258 1346L3177 1257V1248L3190 1249L3291 1290L3181 1253L3259 1341V1347L3257 1348L3244 1347L3087 1308L2961 1254L2972 1268L2975 1279L2954 1246Z" fill="#7E480F"/>
<path d="M3510 1363L3513 1975L3508 1984V1605L3510 1363Z" fill="#120D06"/>
<path d="M425 1208L427 1209L425 1210V1208ZM535 1209L542 1213L433 1251L373 1264H325L360 1262L361 1251L425 1210L373 1251L422 1244L427 1237L535 1209Z" fill="#DF7F14"/>
<path d="M2068 1542L2304 1516L2283 1527H2235L2049 1555L2068 1542Z" fill="#0A1109"/>
<path d="M3041 1478L3044 1523L3041 1911L3038 1729L3041 1478Z" fill="#3385BB"/>
<path d="M1581 233L1807 517L1861 605L1893 674V680L1873 633L1796 512L1581 233Z" fill="#7B5618"/>
<path d="M410 3063L421 3082L440 3094L522 3114L540 3135L427 3103L407 3085L410 3063Z" fill="#0C0204"/>
<path d="M1620 3400L1711 3411L1849 3448L1815 3449L1620 3400Z" fill="#0D0804"/>
<path d="M2027 2218L2023 2646L2025 2670L2039 2697L2022 2676L2019 2648L2018 2263L2027 2218Z" fill="#917214"/>
<path d="M769 1212L775 1217L689 1359L800 1324L958 1252V1262L903 1366V1372H915L911 1376H901L900 1366L957 1254L817 1322L685 1362L769 1212Z" fill="#5E370E"/>
<path d="M2893 1763L2897 1941L2920 1943L2904 1950L2889 1945L2893 1763Z" fill="#619B4A"/>
<path d="M321 1173L315 1186L223 1241L237 1250L298 1251L280 1255L301 1257L196 1254L321 1173Z" fill="#F9BF2D"/>
<path d="M2951 1499L2953 1754L2949 1787L2945 1517L2948 1507L2950 1526L2951 1499Z" fill="#66A350"/>
<path d="M860 2058L878 2082L883 2123L878 2500L879 2138L875 2088L860 2058Z" fill="#953710"/>
<path d="M1999 150L2080 145L2275 161L2233 167L2175 164L2206 160L2174 155L2159 154L2161 163L1999 150Z" fill="#FBCB30"/>
<path d="M2119 2697L2322 2663L2159 2702L2128 2704L2119 2697Z" fill="#0F0909"/>
<path d="M3429 1746L3435 1856L3427 1872L3393 1892L3335 1895L3344 1890L3331 1888L3383 1886L3426 1859L3429 1746Z" fill="#3079AB"/>
<path d="M872 2677L868 2659L871 2665L873 2676L878 2678L879 2690L878 3089L852 3113L819 3114L792 3104L847 3110L874 3085L875 2678L872 2677Z" fill="#A6740D"/>
<path d="M1165 1275L1131 1386L1178 1379L1206 1366L1239 1358L1243 1360L1178 1382L1129 1388L1141 1330L1162 1281L1003 1349L990 1350L984 1354H975L955 1362L943 1363L1062 1322L1165 1275Z" fill="#915310"/>
<path d="M1672 3416H1699L1853 3458L1856 3847L1878 3881L1852 3847L1850 3460L1672 3416Z" fill="#E8D0B0"/>
<path d="M601 1171L543 1257L569 1251L529 1262L501 1299L500 1307L529 1309L478 1323L536 1242L541 1249L546 1243L545 1228L550 1223L557 1229L601 1171Z" fill="#E08315"/>
<path d="M1483 1567L1490 1573L1484 1984L1495 2003L1516 2015L1514 2022L1502 2020L1483 1992V1567Z" fill="#F6B30E"/>
<path d="M1240 551L1243 557L1186 617L1149 645L1105 664L1171 616L1240 551Z" fill="#DA780F"/>
<path d="M1210 2685L1334 2700L1373 2725L1390 2757L1347 2714L1281 2706L1212 2691L1210 2685Z" fill="#0F1408"/>
<path d="M2798 3409L2805 3414L2811 3543L2819 3557L2856 3582L2821 3569L2804 3551L2797 3523L2798 3409Z" fill="#E8D0B0"/>
<path d="M2959 1236L3019 1270L3092 1291L3093 1297H3114L3133 1311L3089 1305L3021 1278L2973 1255L2954 1242L2959 1236Z" fill="#EA8614"/>
<path d="M1510 1516L1585 1517L1699 1530L1511 1518L1488 1540L1482 1567V1992L1511 2026L1571 2041L1504 2025L1480 1990L1479 1567L1489 1533L1510 1516Z" fill="#8C630E"/>
<path d="M1613 3406L1719 3427L1804 3450L1780 3452L1687 3433L1612 3413L1613 3406Z" fill="#E8D0B0"/>
<path d="M2993 2624L3004 2630L2836 2660L2734 2671L2766 2749L2830 2748L2836 2743L2958 2721L2845 2748L2767 2754L2731 2679L2734 2668L2800 2662L2993 2624Z" fill="#753B10"/>
<path d="M2573 2216L2580 2221L2578 2443L2569 2442L2573 2216Z" fill="#5C9646"/>
<path d="M2075 1550L2295 1530L2074 1554L2040 1577L2023 1602L2019 2014L2028 2054L2016 2014L2021 1601L2047 1567L2075 1550Z" fill="#8E3511"/>
<path d="M2382 166L2525 176L2742 407L2524 181L2382 166Z" fill="#835B19"/>
<path d="M1915 1584L1922 1600V2033L1914 2055L1915 1584Z" fill="#51340E"/>
<path d="M496 1414L519 1411L497 1415L486 1426L479 1461L481 1844L484 1871L502 1896L483 1872L478 1851L476 1460L479 1433L491 1417L496 1414Z" fill="#233F50"/>
<path d="M667 1268L609 1300L477 1333L490 1322L549 1310L667 1268Z" fill="#0B0B0C"/>
<path d="M2019 2846V3281L2031 3333L2018 3313L2015 3240L2013 2871L2019 2846Z" fill="#435228"/>
<path d="M3189 1243L3320 1284L3338 1297L3258 1278L3184 1248L3189 1243Z" fill="#E98814"/>
<path d="M2585 1506L2574 1540L2569 1950L2575 1994H2606L2586 1998L2575 1997L2570 1992L2565 1921L2571 1540L2585 1506Z" fill="#45602A"/>
<path d="M3040 3747L3087 3846L3124 3852L3185 3844L3199 3829V3793L3201 3829L3186 3846L3165 3854L3098 3852L3089 3862L3082 3855H3043L3071 3853L3074 3845L3040 3765V3747Z" fill="#0F0804"/>
<path d="M980 2069L964 2113V2461L971 2534L959 2474V2137L964 2087L980 2069Z" fill="#3B4721"/>
<path d="M3229 2475L3378 2458L3127 2503L3099 2505L3093 2494L3107 2501L3229 2475Z" fill="#AB871B"/>
<path d="M784 849L793 854L643 948L653 935L784 849Z" fill="#F9C42F"/>
<path d="M1379 2752L1384 2759L1392 2796L1389 3205L1388 2800L1379 2752Z" fill="#832A11"/>
<path d="M1898 1312L2009 1421L2036 1430L2038 1404L2039 1429L2045 1411L2043 1431L2027 1438L2007 1427L1904 1330L1898 1312Z" fill="#080507"/>
<path d="M3355 977L3486 1078L3488 1071L3498 1075L3564 1136L3452 1058L3355 977Z" fill="#3C280F"/>
<path d="M2722 3002L2789 3154L2800 3165L2797 3181L2734 3048L2722 3002Z" fill="#0B120A"/>
<path d="M494 2011L476 2054L479 2405L494 2456L478 2433L476 2405L472 2105L476 2033L494 2011Z" fill="#9A3A11"/>
<path d="M1764 615L1797 655L1818 700L1829 741L1824 760L1808 703L1764 615Z" fill="#DA7911"/>
<path d="M2688 2940L2792 3179L2641 3222L2602 3228L2593 3222L2640 3221L2789 3178L2688 2940Z" fill="#762E10"/>
<path d="M494 3017L543 3036L656 3061L631 3063L510 3035L494 3017Z" fill="#F8B70E"/>
<path d="M476 2988L480 2609L481 3008L476 2988Z" fill="#E2A20F"/>
<path d="M3199 861L3318 951L3325 963L3236 902L3197 868L3199 861Z" fill="#F8C42F"/>
<path d="M3431 2560L3443 2592L3444 2616L3442 2988L3439 2588L3431 2560Z" fill="#8A3210"/>
<path d="M2773 1243L2885 1296L2899 1311L2791 1263L2770 1251L2773 1243Z" fill="#E88915"/>
<path d="M2477 2290L2476 2595L2472 2609L2450 2629L2398 2638L2386 2633L2439 2624L2462 2609L2473 2557L2476 2573L2477 2290Z" fill="#FBD628"/>
<path d="M1882 2183L1889 2185L1907 2204L1914 2215L1919 2231L1921 2672L1910 2688L1918 2674L1915 2231L1913 2217L1882 2183Z" fill="#25333F"/>
<path d="M3431 1424L3438 1433L3437 1828L3434 1447L3431 1424Z" fill="#2D4757"/>
<path d="M1240 321L1243 326L1212 368L1152 428L1179 386L1240 321Z" fill="#D9770F"/>
<path d="M1488 289H1505L1710 542L1504 295L1486 296L1457 326L1488 289Z" fill="#673B0E"/>
<path d="M1699 1087L1704 1090V1097L1660 1283L1640 1343L1645 1283L1652 1294L1701 1090L1641 1140L1699 1087Z" fill="#DB861A"/>
<path d="M1283 351L1287 356L1265 387L1188 464L1283 351Z" fill="#D6760E"/>
<path d="M3056 3009L3066 3014L2985 3036L2906 3050L2896 3046L3056 3009Z" fill="#09120A"/>
<path d="M1906 2032L1910 2054L1901 2068L1875 2079L1808 2076L1750 2063L1891 2069L1903 2054L1906 2032Z" fill="#FAB90E"/>
<path d="M2566 1263L2627 1291V1297L2690 1317V1323L2676 1325L2641 1312L2580 1282L2563 1268L2566 1263Z" fill="#EA8914"/>
<path d="M975 2667L966 2692L967 3116L962 2692L975 2667Z" fill="#AE3514"/>
<path d="M507 2564L576 2572L710 2602L529 2568H504L485 2583L477 2613V2993L475 2602L485 2579L507 2564Z" fill="#A5700E"/>
<path d="M3402 1275L3420 1287L3435 1307H3441L3431 1291L3438 1297L3459 1324L3345 1303L3377 1299L3436 1311L3419 1290L3401 1283L3402 1275Z" fill="#ED8F17"/>
<path d="M2194 3414L2070 3449L2067 3848V3447L2085 3437L2194 3414Z" fill="#E8D0B0"/>
<path d="M2965 3568L2995 3624L3025 3712L3012 3698L2965 3568Z" fill="#0A0503"/>
<path d="M1241 320L1338 211L1326 233L1267 303L1241 320Z" fill="#E07D10"/>
<path d="M3181 1253L3227 1275L3213 1274L3262 1329L3268 1345L3233 1316L3181 1253Z" fill="#0F0B09"/>
<path d="M847 1134L841 1148L831 1159L830 1166L801 1209L793 1216L780 1248L753 1279L745 1271V1277L738 1290L725 1303L779 1210L787 1205L766 1255L847 1134Z" fill="#D98017"/>
<path d="M2356 1293L2377 1297L2417 1324L2478 1350L2613 1390L2572 1303L2618 1393L2514 1367L2416 1328L2356 1293Z" fill="#91550F"/>
<path d="M1754 445L1840 551V565L1765 471L1754 445Z" fill="#F9C930"/>
<path d="M2565 1277L2605 1298L2578 1293L2625 1390L2586 1333L2565 1277Z" fill="#0C0908"/>
<path d="M2966 3583L2985 3616L3053 3799L3060 3801L3075 3845L3071 3854H3047L3046 3849H3073L2966 3583Z" fill="#E8D0B0"/>
<path d="M2295 1527L2451 1509L2466 1517L2480 1530L2490 1560L2484 1862L2488 1579L2481 1539L2453 1514L2295 1527Z" fill="#993711"/>
<path d="M2167 1268L2173 1281L2143 1369L2132 1390L2114 1397L2112 1391L2124 1390L2131 1380L2167 1268Z" fill="#0B0607"/>
<path d="M2599 3234L2791 3184L2653 3228L2599 3234Z" fill="#061108"/>
<path d="M1381 3340L1462 3358L1489 3372L1368 3352L1381 3340Z" fill="#E8D0B0"/>
<path d="M3391 1237L3432 1249L3431 1255L3412 1257L3463 1305L3469 1328L3414 1273L3391 1237Z" fill="#0E0B0B"/>
<path d="M692 2591H737L738 2597L836 2613L799 2616L692 2591Z" fill="#0A070D"/>
<path d="M873 2721L875 3085L861 3104L854 3103L868 3082L870 2987L872 3011L873 2721Z" fill="#FBB80F"/>
<path d="M3415 3618H3422L3429 3625L3430 3632L3418 3623L3398 3625L3324 3649L3364 3643L3351 3651L3225 3676L3415 3618Z" fill="#E8D0B0"/>
<path d="M330 1150L333 1155L310 1175L186 1250L191 1237L246 1210L330 1150Z" fill="#080407"/>
<path d="M1625 2056L1665 2059L1768 2076L1664 2072L1625 2065V2056Z" fill="#0A060D"/>
<path d="M1883 643L1901 668L1929 743L1926 765L1883 643Z" fill="#F4C330"/>
<path d="M2185 2152L2183 2158L2141 2161L2146 2171L2058 2185L2026 2204L2034 2191L2065 2173L2185 2152Z" fill="#100A09"/>
<path d="M2378 2637L2342 2652L2247 2662L2305 2645L2378 2637Z" fill="#F8D226"/>
<path d="M2581 2709L2572 2745L2569 3156L2571 3190L2589 3218L2571 3198L2565 3127L2568 2752L2581 2709Z" fill="#8A3510"/>
<path d="M3663 1213L3710 1246L3715 1259L3507 1266L3466 1254L3498 1261L3710 1257L3663 1213Z" fill="#835514"/>
<path d="M1214 345L1069 525L1009 588L1126 443L1214 345Z" fill="#50310E"/>
<path d="M2395 366L2457 430L2506 498L2627 628L2668 680L2505 504L2395 366Z" fill="#D2811A"/>
<path d="M2954 3573L2979 3619L2978 3637L2953 3584L2910 3591L2906 3586H2880L2895 3588L2890 3593L2860 3586L2954 3573Z" fill="#E8D0B0"/>
<path d="M833 1443L850 1449L866 1464L877 1492L878 1506L877 1878L871 1919L864 1932L847 1947H841L863 1930L874 1878L877 1510L869 1474L833 1443Z" fill="#263743"/>
<path d="M3134 1310L3209 1331L3243 1330L3258 1346L3134 1317V1310Z" fill="#EE8B14"/>
<path d="M949 1245L954 1249L927 1267L815 1311L826 1300L892 1276L949 1245Z" fill="#EC8713"/>
<path d="M2958 2529L2963 2539L2938 2547L2716 2593L2695 2592L2683 2582L2670 2541L2685 2581L2721 2589L2918 2548L2957 2538L2958 2529Z" fill="#3E5024"/>
<path d="M3036 1496L3039 1907L3056 1935L3035 1911L3036 1496Z" fill="#315369"/>
<path d="M667 1256L774 1204L738 1231L667 1256Z" fill="#DF7C12"/>
<path d="M3190 3062L3189 3080L2941 3135H2928L2913 3110L2911 3096L2924 3127L2941 3132L3189 3076L3190 3062Z" fill="#7E2F0F"/>
<path d="M1354 1507H1362L1381 1526L1391 1554V1952L1383 1983L1389 1959L1388 1555L1377 1525L1354 1507Z" fill="#8E2B11"/>
<path d="M3375 1404L3414 1407L3428 1428L3423 1435L3416 1418L3404 1411L3318 1414L3303 1418L3316 1421L3290 1425L3285 1419L3375 1404Z" fill="#337BAC"/>
<path d="M448 1077L754 864L726 886L563 1003L482 1058L453 1076L448 1077Z" fill="#7D5617"/>
<path d="M1959 904L1998 1011L1990 1026L1967 951L1959 904Z" fill="#130B09"/>
<path d="M2360 2135L2207 2165L2080 2182L2028 2214L2046 2193L2078 2179L2360 2135Z" fill="#886515"/>
<path d="M3330 1304L3425 1322L3461 1333L3360 1321L3331 1313L3330 1304Z" fill="#0B0A0C"/>
<path d="M652 1258L663 1263L555 1303L531 1300L652 1258Z" fill="#E67F11"/>
<path d="M3268 3561H3280L3268 3565V3561ZM3231 3564L3268 3566L3124 3600L3135 3590L3231 3564Z" fill="#0E0704"/>
<path d="M3040 2385L3044 2068L3045 2386L3040 2385Z" fill="#FFF22D"/>
<path d="M2867 1309H2878L2997 1358L2979 1357L2993 1361L2980 1362L2952 1353L2877 1320L2867 1309Z" fill="#0C0A0B"/>
<path d="M1544 172L1584 213L1617 268L1581 233L1544 172Z" fill="#F4C531"/>
<path d="M2474 2155L2481 2171L2484 2238L2482 2587L2476 2609L2481 2236L2474 2155Z" fill="#927218"/>
<path d="M2096 634L2140 695L2155 735L2099 663L2096 634Z" fill="#B85F09"/>
<path d="M797 1313L812 1315L691 1359L711 1332L729 1337L797 1313Z" fill="#EA8513"/>
<path d="M1728 129L1828 126L1896 138L1728 129Z" fill="#FCCB33"/>
<path d="M2924 2046L2939 2049L2951 2066L2932 2049L2871 2054L2601 2095L2580 2111L2601 2092L2924 2046Z" fill="#3E4A22"/>
<path d="M967 1499L969 1809L963 1905L965 1525L967 1499Z" fill="#DB3A16"/>
<path d="M1483 1546L1480 1559L1482 1998L1477 1587L1479 1554L1483 1546Z" fill="#4C370E"/>
<path d="M3406 1025L3442 1044L3507 1104H3497L3406 1025Z" fill="#F5BD29"/>
<path d="M2508 3337L2519 3341V3346L2560 3347L2559 3353L2521 3348L2515 3344L2513 3339L2478 3352L2254 3401L2508 3337Z" fill="#E8D0B0"/>
<path d="M3151 2990L3160 2991L3172 3023L3158 2993H3151L3075 3020L2900 3056L2911 3096L2901 3080L2898 3053L3026 3028L3151 2990Z" fill="#882F0F"/>
<path d="M2953 2375L2952 2068L2954 2074L2957 2132L2956 2383L2943 2393L2953 2375Z" fill="#598942"/>
<path d="M2813 3543L2833 3563L2865 3579H2925L2962 3569L2978 3617L2959 3573L2931 3582L2858 3588L2843 3582L2856 3579L2831 3568L2813 3543Z" fill="#E8D0B0"/>
<path d="M1901 2839L1914 2860L1919 2884L1921 3319L1915 3334L1916 2886L1901 2839Z" fill="#233A48"/>
<path d="M3526 1431L3527 1391V1431H3526ZM3562 1368L3565 1365V1368H3562Z" fill="black"/>
</svg>
